<svg width="13" height="16" viewBox="0 0 13 16" fill="none" xmlns="http://www.w3.org/2000/svg">
<g id="Component 4">
<path id="Vector (Stroke)" fill-rule="evenodd" clip-rule="evenodd" d="M6.40941 2.00005C5.31653 2.00005 4.43057 2.93812 4.43057 4.09529C4.43057 5.25246 5.31653 6.19053 6.40941 6.19053C7.50227 6.19053 8.38824 5.25245 8.38824 4.09529C8.38824 2.93813 7.50227 2.00005 6.40941 2.00005ZM2.81152 4.09529C2.81152 1.99135 4.42235 0.285767 6.40941 0.285767C8.39643 0.285767 10.0073 1.99134 10.0073 4.09529C10.0073 6.19924 8.39643 7.90481 6.40941 7.90481C4.42235 7.90481 2.81152 6.19923 2.81152 4.09529Z" fill="white"/>
<path id="Vector (Stroke)_2" fill-rule="evenodd" clip-rule="evenodd" d="M5.0155 10.1191C3.15264 10.1191 1.64249 11.7181 1.64249 13.6905V14.4286C1.64249 14.902 1.28005 15.2857 0.832961 15.2857C0.385874 15.2857 0.0234375 14.902 0.0234375 14.4286V13.6905C0.0234375 10.7713 2.25846 8.40479 5.0155 8.40479H7.80386C10.5609 8.40479 12.7959 10.7713 12.7959 13.6905V14.4286C12.7959 14.902 12.4335 15.2857 11.9864 15.2857C11.5393 15.2857 11.1769 14.902 11.1769 14.4286V13.6905C11.1769 11.7181 9.66672 10.1191 7.80386 10.1191H5.0155Z" fill="white"/>
</g>
</svg>
