<svg width="24" height="24" viewBox="0 0 24 24" fill="none" xmlns="http://www.w3.org/2000/svg">
<g id="material-symbols:phone-in-talk-rounded">
<path id="Vector" d="M20 12C19.7333 12 19.496 11.904 19.288 11.712C19.0793 11.5207 18.9583 11.2833 18.925 11C18.7083 9.45 18.0543 8.129 16.963 7.037C15.871 5.94567 14.55 5.29167 13 5.075C12.7167 5.04167 12.4793 4.925 12.288 4.725C12.096 4.525 12 4.28333 12 4C12 3.71667 12.1 3.479 12.3 3.287C12.5 3.09567 12.7333 3.01667 13 3.05C15.1 3.28333 16.8917 4.14167 18.375 5.625C19.8583 7.10833 20.7167 8.9 20.95 11C20.9833 11.2667 20.904 11.5 20.712 11.7C20.5207 11.9 20.2833 12 20 12ZM15.825 12C15.6083 12 15.4167 11.925 15.25 11.775C15.0833 11.625 14.9583 11.425 14.875 11.175C14.7417 10.6917 14.4877 10.2623 14.113 9.887C13.7377 9.51233 13.3083 9.25833 12.825 9.125C12.575 9.04167 12.375 8.91667 12.225 8.75C12.075 8.58333 12 8.38333 12 8.15C12 7.81667 12.1167 7.54567 12.35 7.337C12.5833 7.129 12.8417 7.05833 13.125 7.125C14.0583 7.34167 14.8627 7.78733 15.538 8.462C16.2127 9.13733 16.6583 9.94167 16.875 10.875C16.9417 11.1583 16.8667 11.4167 16.65 11.65C16.4333 11.8833 16.1583 12 15.825 12ZM19.95 21C17.8 21 15.7043 20.5207 13.663 19.562C11.621 18.604 9.81267 17.3373 8.238 15.762C6.66267 14.1873 5.396 12.379 4.438 10.337C3.47933 8.29567 3 6.2 3 4.05C3 3.75 3.1 3.5 3.3 3.3C3.5 3.1 3.75 3 4.05 3H8.1C8.33333 3 8.54167 3.075 8.725 3.225C8.90833 3.375 9.01667 3.56667 9.05 3.8L9.7 7.3C9.73333 7.53333 9.72933 7.74567 9.688 7.937C9.646 8.129 9.55 8.3 9.4 8.45L7 10.9C7.7 12.1 8.575 13.225 9.625 14.275C10.675 15.325 11.8333 16.2333 13.1 17L15.45 14.65C15.6 14.5 15.796 14.3873 16.038 14.312C16.2793 14.2373 16.5167 14.2167 16.75 14.25L20.2 14.95C20.4333 15 20.625 15.1123 20.775 15.287C20.925 15.4623 21 15.6667 21 15.9V19.95C21 20.25 20.9 20.5 20.7 20.7C20.5 20.9 20.25 21 19.95 21Z" fill="#302929"/>
</g>
</svg>
